<?xml version="1.0" encoding="utf-8" standalone="yes"?>
<!DOCTYPE svg PUBLIC "-//W3C//DTD SVG 1.1//EN" "http://www.w3.org/Graphics/SVG/1.1/DTD/svg11.dtd">
<svg width="74" height="74" viewBox="0 0 74 74" style="fill:none;stroke:none;fill-rule:evenodd;clip-rule:evenodd;stroke-linecap:round;stroke-linejoin:round;stroke-miterlimit:1.5;" version="1.1" xmlns="http://www.w3.org/2000/svg" xmlns:xlink="http://www.w3.org/1999/xlink"><g id="items" style="isolation: isolate"><g id="blend" style="mix-blend-mode: normal"><g id="g-root-pose_7qjqu1fd8nwo-fill" data-item-order="2000000000" transform="translate(3, 3)"></g><g id="g-root-pose_7qjqu1fd8nwo-stroke" data-item-order="2000000000" transform="translate(3, 3)"><g id="pose_7qjqu1fd8nwo-stroke" fill="none" stroke-linecap="round" stroke-linejoin="round" stroke-miterlimit="4" stroke="#f4f4f4" stroke-width="2"><g><path d="M 49.689999 24.310001C 53.003708 24.310001 55.690002 21.623709 55.690002 18.310001C 55.690002 14.996292 53.003708 12.31 49.690002 12.31C 46.376293 12.31 43.690002 14.996292 43.690002 18.310001C 43.690002 21.623709 46.376293 24.310001 49.690002 24.310001ZM 37.071999 34.260002L 37.071999 50.928001C 37.071999 53.307999 38.975998 55.214001 41.358002 55.214001C 43.737999 55.214001 45.644001 53.307999 45.644001 50.928001L 45.644001 35.452C 45.644001 30.690001 46.119999 24.736 40.882 23.546C 36.120003 22.355999 28.976 23.546 21.834 29.497999C 15.882 34.260002 12.309999 40.214001 12.309999 47.355999C 12.309999 52.116001 14.690001 55.689999 19.452 55.689999L 26.596001 55.689999C 31.356001 55.689999 32.548 53.310001 32.548 50.928001C 32.548 48.548 31.358 46.166 26.596001 46.166L 23.024 46.166L 23.024 43.785999C 22.784 43.785999 27.548 35.452 37.071999 34.260002Z"></path></g></g></g></g></g></svg>