<?xml version="1.0" encoding="utf-8" standalone="yes"?>
<!DOCTYPE svg PUBLIC "-//W3C//DTD SVG 1.1//EN" "http://www.w3.org/Graphics/SVG/1.1/DTD/svg11.dtd">
<svg width="97" height="97" viewBox="0 0 97 97" style="fill:none;stroke:none;fill-rule:evenodd;clip-rule:evenodd;stroke-linecap:round;stroke-linejoin:round;stroke-miterlimit:1.5;" version="1.1" xmlns="http://www.w3.org/2000/svg" xmlns:xlink="http://www.w3.org/1999/xlink"><g id="items" style="isolation: isolate"><g id="blend" style="mix-blend-mode: normal"><g id="g-root-symp_v97rw51h1oidn-fill" data-item-order="1000000000" transform="translate(2.5, 2.5)"></g><g id="g-root-symp_v97rw51h1oidn-stroke" data-item-order="1000000000" transform="translate(2.5, 2.5)"><g id="symp_v97rw51h1oidn-stroke" fill="none" stroke-linecap="butt" stroke-linejoin="miter" stroke-miterlimit="4" stroke="#ffffff" stroke-width="1"><g><path d="M 22.896671 79.75L 22.896671 60.955002C 18.75139 57.1147 15.86041 52.113701 14.60134 46.605103C 13.342239 41.0965 13.77355 35.336021 15.8389 30.076241C 17.904249 24.81646 21.5077 20.301701 26.17864 17.12155C 30.849581 13.9414 36.37093 12.243652 42.021698 12.250018C 63.438702 12.250018 68.061707 29.884029 75.696701 49.689999C 75.827499 50.031101 75.873398 50.398598 75.830505 50.761299C 75.787903 51.124001 75.657394 51.470798 75.450699 51.771999C 75.244301 52.072899 74.9674 52.319199 74.644302 52.489601C 74.321503 52.66 73.9618 52.749397 73.596703 52.75L 67.896698 52.75L 67.896698 61.75C 67.896698 64.1371 66.948395 66.426102 65.260605 68.113899C 63.5728 69.801704 61.283501 70.75 58.896702 70.75L 54.396698 70.75L 54.396698 79.75M 43.0924 20.63344C 44.781399 28.17832 44.217701 43.552299 35.30698 47.304401C 28.88818 50.007099 21.566589 45.9529 21.569351 39.984638C 21.5734 31.189541 36.975368 33.04789 46.735298 34.556259C 56.495499 36.064629 58.003902 30.74095 56.495499 27.280571C 54.987099 23.82016 44.806301 17.873199 36.530983 22.07962C 26.299091 27.2806 28.8409 36.83437 31.59148 40.827099C 35.221298 46.096001 43.666603 47.742401 49.163799 45.255699C 54.093399 43.025501 53.371601 36.741463 49.766499 34.818699"></path></g></g></g></g></g></svg>