<?xml version="1.0" encoding="utf-8" standalone="yes"?>
<!DOCTYPE svg PUBLIC "-//W3C//DTD SVG 1.1//EN" "http://www.w3.org/Graphics/SVG/1.1/DTD/svg11.dtd">
<svg width="74" height="74" viewBox="0 0 74 74" style="fill:none;stroke:none;fill-rule:evenodd;clip-rule:evenodd;stroke-linecap:round;stroke-linejoin:round;stroke-miterlimit:1.5;" version="1.1" xmlns="http://www.w3.org/2000/svg" xmlns:xlink="http://www.w3.org/1999/xlink"><g id="items" style="isolation: isolate"><g id="blend" style="mix-blend-mode: normal"><g id="g-root-stre_1upalpi1fdfqiq-fill" data-item-order="2000000000" transform="translate(3, 3)"></g><g id="g-root-stre_1upalpi1fdfqiq-stroke" data-item-order="2000000000" transform="translate(3, 3)"><g id="stre_1upalpi1fdfqiq-stroke" fill="none" stroke-linecap="round" stroke-linejoin="round" stroke-miterlimit="4" stroke="#f4f4f4" stroke-width="2"><g><path d="M 19.350719 56.5L 19.350719 43.970001C 16.587181 41.409798 14.65988 38.075798 13.82048 34.4034C 12.9811 30.731001 13.26862 26.89068 14.64554 23.384159C 16.02244 19.87764 18.424721 16.8678 21.538681 14.7477C 24.652641 12.6276 28.33354 11.495768 32.1008 11.500012C 46.378799 11.500012 49.4608 23.25602 54.5508 36.459999C 54.638 36.687401 54.668598 36.9324 54.639999 37.174202C 54.611401 37.416 54.524601 37.647202 54.386799 37.848C 54.249001 38.048599 54.064602 38.212799 53.849201 38.326401C 53.633801 38.440002 53.394199 38.499599 53.150799 38.5L 49.3508 38.5L 49.3508 44.5C 49.3508 46.0914 48.718601 47.617401 47.593399 48.742599C 46.468201 49.867802 44.942001 50.5 43.3508 50.5L 40.3508 50.5L 40.3508 56.5M 32.130798 41.320801C 38.372803 41.320801 43.432598 36.260799 43.432598 30.018999C 43.432598 23.777279 38.372803 18.717281 32.130798 18.717281C 25.88908 18.717281 20.8291 23.777279 20.8291 30.018999C 20.8291 36.260799 25.88908 41.320801 32.130798 41.320801ZM 28.3148 27.83272C 27.899321 27.83272 27.5625 27.495899 27.5625 27.08042C 27.5625 26.66494 27.899321 26.328119 28.3148 26.328119M 28.315081 27.83272C 28.73056 27.83272 29.067381 27.495899 29.067381 27.08042C 29.067381 26.66494 28.73056 26.328119 28.315081 26.328119M 35.946602 27.83272C 35.5312 27.83272 35.194401 27.495899 35.194401 27.08042C 35.194401 26.66494 35.5312 26.328119 35.946602 26.328119M 35.946999 27.83272C 36.3624 27.83272 36.6992 27.495899 36.6992 27.08042C 36.6992 26.66494 36.3624 26.328119 35.946999 26.328119M 28.66218 34.2192C 30.3496 32.640602 33.993797 32.6926 35.600403 34.2192"></path></g></g></g></g></g></svg>