<?xml version="1.0" encoding="utf-8" standalone="yes"?>
<!DOCTYPE svg PUBLIC "-//W3C//DTD SVG 1.1//EN" "http://www.w3.org/Graphics/SVG/1.1/DTD/svg11.dtd">
<svg width="74" height="74" viewBox="0 0 74 74" style="fill:none;stroke:none;fill-rule:evenodd;clip-rule:evenodd;stroke-linecap:round;stroke-linejoin:round;stroke-miterlimit:1.5;" version="1.1" xmlns="http://www.w3.org/2000/svg" xmlns:xlink="http://www.w3.org/1999/xlink"><g id="items" style="isolation: isolate"><g id="blend" style="mix-blend-mode: normal"><g id="g-root-oval_mb3kg61e9mwp0-fill" data-item-order="2000000000" transform="translate(3, 3)"></g><g id="g-root-oval_mb3kg61e9mwp0-stroke" data-item-order="2000000000" transform="translate(3, 3)"><g id="oval_mb3kg61e9mwp0-stroke" fill="none" stroke-linecap="round" stroke-linejoin="round" stroke-miterlimit="4" stroke="#f4f4f4" stroke-width="2"><g><path d="M 41.714287 27.142857C 49.761864 27.142857 56.285713 33.66671 56.285713 41.714287C 56.294815 44.582497 55.447166 47.388081 53.851425 49.771427L 56.285713 56.285713L 48.091427 54.811428C 42.695953 57.442528 36.23909 56.495636 31.826248 52.426155C 27.413404 48.356678 25.947714 41.997478 28.134098 36.40699C 30.32048 30.8165 35.711468 27.138876 41.714287 27.142857ZM 43.805714 18.605715C 39.072716 12.583078 31.041679 10.223693 23.803223 12.729312C 16.564766 15.234932 11.711036 22.054428 11.714286 29.714285C 11.703659 33.2663 12.754284 36.740528 14.731428 39.691429L 11.714286 47.714287L 18.982857 46.41143"></path></g></g></g></g></g></svg>