<?xml version="1.0" encoding="utf-8" standalone="yes"?>
<!DOCTYPE svg PUBLIC "-//W3C//DTD SVG 1.1//EN" "http://www.w3.org/Graphics/SVG/1.1/DTD/svg11.dtd">
<svg width="97" height="97" viewBox="0 0 97 97" style="fill:none;stroke:none;fill-rule:evenodd;clip-rule:evenodd;stroke-linecap:round;stroke-linejoin:round;stroke-miterlimit:1.5;" version="1.1" xmlns="http://www.w3.org/2000/svg" xmlns:xlink="http://www.w3.org/1999/xlink"><g id="items" style="isolation: isolate"><g id="blend" style="mix-blend-mode: normal"><g id="g-root-1_1lwshyt1fxor2b-fill" data-item-order="1000000000" transform="translate(2.5, 2.5)"></g><g id="g-root-1_1lwshyt1fxor2b-stroke" data-item-order="1000000000" transform="translate(2.5, 2.5)"><g id="1_1lwshyt1fxor2b-stroke" fill="none" stroke-linecap="butt" stroke-linejoin="miter" stroke-miterlimit="4" stroke="#f4f4f4" stroke-width="1"><g><path d="M 65.5 41.5L 80.5 41.5M 65.5 32.5L 77.5 26.5M 65.5 50.5L 77.5 56.5M 11.5 67.093002C 12.095636 73.114334 16.265703 78.181206 22.060001 79.924004C 26.438231 81.155273 31.139511 80.303276 34.807213 77.613869C 38.474907 74.924454 40.700958 70.696846 40.842999 66.151001C 41.023605 61.322807 43.684982 56.930294 47.881001 54.535C 56.479454 49.530891 60.91153 39.586449 58.884209 29.846609C 56.856892 20.10677 48.825005 12.756661 38.944 11.599C 30.00782 10.78521 21.449356 15.386801 17.200001 23.290001M 23.878 30.664C 28.054317 28.806185 32.887066 29.18782 36.720016 31.678118C 40.552967 34.168419 42.865471 38.429104 42.864998 43C 42.975288 48.955025 39.004333 54.215359 33.246998 55.740997C 31.178848 56.282272 29.63991 58.01535 29.347 60.133003C 29.097347 62.712051 27.202387 64.830521 24.667 65.364998C 22.899536 65.755112 21.050415 65.326492 19.634827 64.198563C 18.219236 63.070637 17.388474 61.363945 17.374001 59.554001M 28 47.5C 30.034552 47.500412 31.81629 46.135643 32.345821 44.171211C 32.875351 42.206776 32.020931 40.131409 30.261814 39.109203C 28.502697 38.086998 26.276533 38.372269 24.832001 39.805C 23.867138 38.060307 23.362286 36.098717 23.365 34.105C 23.434458 28.161919 27.838741 23.162678 33.725677 22.344734C 39.61261 21.526793 45.212967 25.135971 46.900002 30.835001"></path></g></g></g></g></g></svg>