<?xml version="1.0" encoding="utf-8" standalone="yes"?>
<!DOCTYPE svg PUBLIC "-//W3C//DTD SVG 1.1//EN" "http://www.w3.org/Graphics/SVG/1.1/DTD/svg11.dtd">
<svg width="74" height="74" viewBox="0 0 74 74" style="fill:none;stroke:none;fill-rule:evenodd;clip-rule:evenodd;stroke-linecap:round;stroke-linejoin:round;stroke-miterlimit:1.5;" version="1.1" xmlns="http://www.w3.org/2000/svg" xmlns:xlink="http://www.w3.org/1999/xlink"><g id="items" style="isolation: isolate"><g id="blend" style="mix-blend-mode: normal"><g id="g-root-decr_9lphi1dpp62u-fill" data-item-order="2000000000" transform="translate(3, 3)"></g><g id="g-root-decr_9lphi1dpp62u-stroke" data-item-order="2000000000" transform="translate(3, 3)"><g id="decr_9lphi1dpp62u-stroke" fill="none" stroke-linecap="round" stroke-linejoin="round" stroke-miterlimit="4" stroke="#f4f4f4" stroke-width="2"><g><path d="M 26.615999 40.146C 21.691734 35.323753 20.16634 28.005531 22.75396 21.617521C 25.341579 15.22951 31.530085 11.035994 38.422195 11.000257C 45.314304 10.96452 51.545963 15.093634 54.199688 21.454468C 56.853416 27.8153 55.403992 35.148949 50.529999 40.021999M 39.507999 26L 39.507999 37M 45.507999 18L 39.507999 26L 33.507999 18M 35.507999 27L 43.507999 27M 35.507999 31L 43.507999 31M 12.507999 35L 29.246 49.880001C 29.974524 50.527054 31.063322 50.554928 31.823999 49.945999L 39.158001 44.080002C 39.933372 43.459888 41.046272 43.502464 41.771999 44.18L 55.507999 57M 47.507999 57L 55.507999 57L 55.507999 49.046001"></path></g></g></g></g></g></svg>