<?xml version="1.0" encoding="utf-8" standalone="yes"?>
<!DOCTYPE svg PUBLIC "-//W3C//DTD SVG 1.1//EN" "http://www.w3.org/Graphics/SVG/1.1/DTD/svg11.dtd">
<svg width="74" height="74" viewBox="0 0 74 74" style="fill:none;stroke:none;fill-rule:evenodd;clip-rule:evenodd;stroke-linecap:round;stroke-linejoin:round;stroke-miterlimit:1.5;" version="1.1" xmlns="http://www.w3.org/2000/svg" xmlns:xlink="http://www.w3.org/1999/xlink"><g id="items" style="isolation: isolate"><g id="blend" style="mix-blend-mode: normal"><g id="g-root-1_m7z0py1h1n37p-fill" data-item-order="2000000000" transform="translate(3, 3)"></g><g id="g-root-1_m7z0py1h1n37p-stroke" data-item-order="2000000000" transform="translate(3, 3)"><g id="1_m7z0py1h1n37p-stroke" fill="none" stroke-linecap="round" stroke-linejoin="round" stroke-miterlimit="4" stroke="#f4f4f4" stroke-width="2"><g><path d="M 24.79324 56.121399L 24.79324 45.269199C 23.17436 43.769402 21.88682 41.962997 20.998039 39.966801M 42.981201 56.121399L 42.981201 50.924801L 45.579601 50.924801C 46.957802 50.924801 48.279598 50.377201 49.2542 49.402599C 50.2286 48.4282 50.776199 47.1064 50.776199 45.728199L 50.776199 40.531601L 54.067402 40.531601C 54.278198 40.5312 54.485802 40.479599 54.672199 40.381203C 54.858799 40.282799 55.0186 40.140602 55.137798 39.966801C 55.257198 39.792999 55.332401 39.592598 55.357201 39.383202C 55.382 39.173798 55.3554 38.961601 55.2798 38.764801C 51.349602 28.569361 48.8018 19.370781 39.532799 17.494999M 23.945099 34.503201C 30.192801 34.503201 35.257401 29.43856 35.257401 23.19096C 35.257401 16.94334 30.192801 11.878662 23.945099 11.878662C 17.6975 11.878662 12.63282 16.94334 12.63282 23.19096C 12.63282 29.43856 17.6975 34.503201 23.945099 34.503201ZM 10 10M 32.215797 30.9338L 38.982399 37.607399M 20.81348 19.783241C 20.81348 18.1355 22.13168 16.65258 23.94418 16.65258C 25.591919 16.65258 27.0749 17.97072 27.0749 19.783241C 27.0749 21.430981 25.756699 22.913979 23.94418 22.913979L 23.94418 24.30356M 23.94438 28.868099C 23.729019 28.868099 23.51368 29.083481 23.51368 29.29884C 23.51368 29.5142 23.729019 29.729521 23.94438 29.729521M 23.944279 28.868099C 24.159641 28.868099 24.375 29.083481 24.375 29.29884C 24.375 29.5142 24.159641 29.729521 23.944279 29.729521"></path></g></g></g></g></g></svg>