<?xml version="1.0" encoding="utf-8" standalone="yes"?>
<!DOCTYPE svg PUBLIC "-//W3C//DTD SVG 1.1//EN" "http://www.w3.org/Graphics/SVG/1.1/DTD/svg11.dtd">
<svg width="74" height="74" viewBox="0 0 74 74" style="fill:none;stroke:none;fill-rule:evenodd;clip-rule:evenodd;stroke-linecap:round;stroke-linejoin:round;stroke-miterlimit:1.5;" version="1.1" xmlns="http://www.w3.org/2000/svg" xmlns:xlink="http://www.w3.org/1999/xlink"><g id="items" style="isolation: isolate"><g id="blend" style="mix-blend-mode: normal"><g id="g-root-1_1d2efqu1gr835u-fill" data-item-order="2000000000" transform="translate(3, 3)"></g><g id="g-root-1_1d2efqu1gr835u-stroke" data-item-order="2000000000" transform="translate(3, 3)"><g id="1_1d2efqu1gr835u-stroke" fill="none" stroke-linecap="round" stroke-linejoin="round" stroke-miterlimit="4" stroke="#f4f4f4" stroke-width="2"><g><path d="M 33 40C 32.991806 42.374012 31.308981 44.41217 28.979427 44.869526C 26.649874 45.326881 24.321369 44.07626 23.416212 41.881561C 22.511055 39.686867 23.280941 37.158379 25.255611 35.840546C 27.23028 34.522713 29.860634 34.78199 31.540001 36.459999M 38.239998 36C 38.744644 37.273087 39.002563 38.630539 39 40C 38.99826 45.247719 35.289875 49.763451 30.142677 50.785648C 24.99548 51.807842 19.842976 49.051815 17.836134 44.202988C 15.829294 39.354164 17.527025 33.762947 21.891098 30.848602C 26.255169 27.934258 32.070175 28.508434 35.779999 32.220001M 42.740002 31.52C 47.279533 39.264721 45.031952 49.20306 37.601635 54.240765C 30.171322 59.278469 20.106968 57.687542 14.592786 50.603626C 9.078603 43.519714 10.006025 33.372688 16.713034 27.405773C 23.420042 21.438856 33.606049 21.69878 40 28M 28 40L 51 17M 51 17L 57 17C 57 17 52 32 44 24C 36 16 51 11 51 11ZM 47 21L 47 12.82M 11 57L 15.98 52.02M 40.02 52.02L 45 57M 28 39.5C 28.276142 39.5 28.5 39.723858 28.5 40C 28.5 40.276142 28.276142 40.5 28 40.5C 27.723858 40.5 27.5 40.276142 27.5 40C 27.5 39.723858 27.723858 39.5 28 39.5"></path></g></g></g></g></g></svg>