<?xml version="1.0" encoding="utf-8" standalone="yes"?>
<!DOCTYPE svg PUBLIC "-//W3C//DTD SVG 1.1//EN" "http://www.w3.org/Graphics/SVG/1.1/DTD/svg11.dtd">
<svg width="74" height="74" viewBox="0 0 74 74" style="fill:none;stroke:none;fill-rule:evenodd;clip-rule:evenodd;stroke-linecap:round;stroke-linejoin:round;stroke-miterlimit:1.5;" version="1.1" xmlns="http://www.w3.org/2000/svg" xmlns:xlink="http://www.w3.org/1999/xlink"><g id="items" style="isolation: isolate"><g id="blend" style="mix-blend-mode: normal"><g id="g-root-1_143m6hy1grghzf-fill" data-item-order="2000000000" transform="translate(3, 3)"></g><g id="g-root-1_143m6hy1grghzf-stroke" data-item-order="2000000000" transform="translate(3, 3)"><g id="1_143m6hy1grghzf-stroke" fill="none" stroke-linecap="round" stroke-linejoin="round" stroke-miterlimit="4" stroke="#f4f4f4" stroke-width="2"><g><path d="M 21.486 56.5L 21.486 53.472L 19.548 53.472C 18.512695 53.468075 17.523813 53.041897 16.809999 52.292C 16.078564 51.523819 15.672266 50.502701 15.676001 49.442001L 15.676001 45.414001L 13.222 45.414001C 12.899139 45.414055 12.598741 45.24876 12.426 44.975998C 12.243681 44.700153 12.204283 44.353745 12.32 44.043999C 13.168 41.751999 14.852 40.436001 15.676001 38.393997C 15.592 32.174 20.496 27.284 26.812 27.284C 27.648001 27.284 28.478001 27.374001 29.290001 27.549999M 32.959999 56.5L 32.959999 49.085999C 31.162493 47.344109 29.919794 45.109894 29.388 42.663998C 28.846418 40.197609 29.031914 37.627075 29.921999 35.264C 30.794239 32.931534 32.343063 30.912628 34.369999 29.466C 36.361046 28.048763 38.744061 27.286814 41.187996 27.285999C 47.504002 27.285999 52.408001 32.172001 52.324001 38.393997C 53.147999 40.433998 54.832001 41.753998 55.68 44.043999C 55.794018 44.35371 55.755482 44.699039 55.576 44.975998C 55.402878 45.249363 55.10157 45.414742 54.778 45.413998L 52.324001 45.414001L 52.324001 49.442001C 52.324001 50.512001 51.916 51.535999 51.189999 52.292C 50.475708 53.042397 49.486 53.46862 48.450001 53.472L 46.514 53.472L 46.514 56.5M 36.75 11.5L 31.75 16.5L 37.75 16.5L 32.75 21.5M 52.669998 15.006001L 47.004002 19.24L 52.944 20.1L 47.278 24.332001M 14.83 15.006001L 20.496 19.24L 14.556 20.1L 20.222 24.332001"></path></g></g></g></g></g></svg>