<?xml version="1.0" encoding="UTF-8"?>
<svg width="80" height="80" viewBox="0 0 80 80" fill="none" xmlns="http://www.w3.org/2000/svg">
    <path d="M40 10C34.4772 10 30 14.4772 30 20V40C30 45.5228 34.4772 50 40 50C45.5228 50 50 45.5228 50 40V20C50 14.4772 45.5228 10 40 10ZM46 40C46 43.3137 43.3137 46 40 46C36.6863 46 34 43.3137 34 40V20C34 16.6863 36.6863 14 40 14C43.3137 14 46 16.6863 46 20V40Z" fill="white"/>
    <path d="M35 20V40C35 42.7614 37.2386 45 40 45C42.7614 45 45 42.7614 45 40V20" stroke="white" stroke-width="2"/>
</svg>
